<?xml version="1.0" standalone="no"?>
<!DOCTYPE svg PUBLIC "-//W3C//DTD SVG 20010904//EN"
 "http://www.w3.org/TR/2001/REC-SVG-20010904/DTD/svg10.dtd">
<svg version="1.0" xmlns="http://www.w3.org/2000/svg"
 width="1080.000000pt" height="1080.000000pt" viewBox="0 0 1080.000000 1080.000000"
 preserveAspectRatio="xMidYMid meet">
<metadata>
Created by potrace 1.14, written by Peter Selinger 2001-2017
</metadata>
<g transform="translate(0.000000,1080.000000) scale(0.100000,-0.100000)"
fill="#000000" stroke="none">
<path d="M5270 8323 c-243 -22 -347 -39 -455 -72 -16 -5 -64 -19 -105 -31 -41
-12 -79 -26 -84 -31 -6 -5 -16 -9 -24 -9 -14 0 -62 -21 -187 -81 -225 -109
-458 -290 -612 -476 -21 -25 -43 -51 -50 -58 -17 -18 -97 -146 -112 -180 -7
-16 -19 -43 -27 -58 -8 -16 -14 -37 -14 -47 0 -10 -4 -21 -9 -24 -5 -3 -12
-23 -16 -43 -4 -21 -10 -42 -15 -48 -4 -5 -10 -32 -14 -58 -3 -27 -9 -54 -13
-60 -5 -7 -13 -46 -20 -87 -7 -41 -19 -115 -27 -165 -32 -197 -67 -705 -65
-960 1 -273 8 -407 20 -400 4 3 10 1 14 -5 4 -6 11 -8 16 -4 5 3 7 9 4 13 -2
5 6 6 20 4 26 -6 27 -1 40 157 4 41 11 77 15 80 5 3 40 3 77 -1 82 -7 105 2
101 39 -3 26 -6 27 -83 35 -44 5 -83 14 -88 20 -9 15 3 143 38 386 4 24 39
186 56 256 16 63 39 175 49 240 6 33 14 72 19 87 12 33 0 120 -19 143 -15 19
-7 188 10 193 5 2 10 20 10 40 0 23 8 45 23 61 13 15 29 44 36 66 16 47 71
124 89 125 16 0 15 6 -4 35 -14 21 -14 25 -2 25 8 0 28 15 44 33 16 19 34 36
39 38 16 6 55 67 55 84 0 8 4 15 8 15 5 0 22 13 38 30 16 16 37 30 46 30 10 0
24 14 33 30 9 17 24 30 34 30 21 0 33 22 25 45 -7 18 9 20 34 4 28 -17 72 5
72 36 0 14 5 25 10 25 6 0 10 -7 10 -16 0 -22 42 -14 55 11 5 11 18 31 28 45
16 23 19 24 28 8 5 -10 21 -18 35 -18 14 0 23 4 19 10 -3 5 9 17 27 26 18 9
40 23 50 31 20 18 36 -1 18 -22 -10 -12 -10 -15 2 -15 19 0 38 20 38 40 0 19
30 50 48 50 6 0 14 -9 17 -21 7 -20 7 -20 33 -2 15 9 50 20 77 23 40 4 50 9
49 23 -1 12 2 15 10 8 6 -5 30 -12 54 -16 40 -6 43 -9 38 -31 -6 -23 -4 -24
42 -24 43 0 49 3 59 28 9 23 11 24 12 6 1 -12 12 -29 26 -38 26 -17 26 -17 23
11 -2 19 2 28 15 31 12 2 17 -3 17 -17 0 -12 5 -21 10 -21 6 0 10 5 10 10 0 6
6 10 14 10 8 0 18 9 21 21 7 21 7 20 34 -5 15 -14 38 -26 52 -26 14 0 30 -5
36 -11 8 -8 23 -7 57 4 31 11 64 14 101 10 51 -5 55 -4 55 16 0 11 -5 21 -12
21 -6 0 -8 3 -5 6 4 4 20 1 36 -5 23 -10 33 -10 49 0 18 11 24 10 40 -4 10 -9
32 -17 48 -17 16 0 35 -4 43 -9 19 -12 6 -61 -17 -61 -17 -1 -52 -22 -52 -32
0 -13 49 -4 55 10 4 11 15 13 50 9 49 -7 67 5 35 25 -21 14 -27 43 -9 53 6 4
13 -2 15 -12 4 -15 12 -19 29 -15 17 3 28 -3 40 -22 13 -19 26 -26 51 -26 32
0 33 -1 28 -30 -7 -33 0 -38 22 -15 9 8 24 15 35 15 12 0 19 7 19 19 0 10 7
24 15 31 13 11 18 10 31 -8 18 -25 37 -28 54 -8 13 17 40 10 40 -10 0 -8 6
-11 15 -8 8 4 22 1 30 -6 12 -10 21 -10 42 -1 14 6 26 10 27 9 1 -2 7 -15 14
-30 8 -20 19 -28 37 -28 14 0 35 -6 46 -12 17 -10 23 -10 26 0 7 18 31 15 61
-8 18 -15 34 -19 53 -15 23 5 28 3 31 -17 2 -18 11 -24 38 -28 24 -3 36 -11
38 -24 3 -14 0 -17 -12 -13 -10 4 -19 1 -23 -9 -8 -21 3 -29 40 -29 18 0 32
-4 32 -10 2 -35 19 -55 51 -61 32 -6 34 -8 20 -23 -23 -25 -4 -46 38 -43 39 3
76 -12 76 -30 0 -5 -9 -8 -20 -5 -24 6 -25 1 -5 -19 10 -10 23 -13 37 -8 19 6
21 5 11 -8 -10 -11 -9 -20 2 -42 8 -16 15 -35 15 -43 0 -10 6 -12 20 -8 25 8
27 -13 3 -31 -15 -10 -16 -15 -5 -26 11 -11 15 -10 23 5 12 21 56 40 70 31 6
-4 6 -11 -2 -20 -6 -7 -15 -11 -20 -8 -17 10 -21 -27 -5 -45 9 -10 16 -27 16
-38 0 -11 7 -26 15 -33 9 -7 22 -27 31 -45 8 -18 24 -35 35 -38 18 -5 19 -9 9
-27 -9 -17 -8 -26 7 -47 24 -35 28 -42 43 -83 52 -146 57 -355 9 -380 -39 -21
-49 -61 -39 -151 5 -46 14 -145 20 -219 5 -74 13 -160 16 -190 9 -89 10 -339
1 -417 -8 -67 -7 -73 10 -74 10 0 13 -3 6 -6 -7 -2 -13 -13 -13 -23 0 -9 -6
-22 -12 -27 -20 -16 -158 -25 -174 -12 -20 17 -44 3 -44 -25 0 -27 23 -46 49
-40 9 3 48 -2 86 -9 l70 -13 -4 -55 c-2 -30 -4 -65 -5 -79 0 -15 4 -24 12 -23
15 4 16 -19 1 -34 -13 -13 -2 -36 13 -27 6 4 14 0 19 -7 6 -11 9 -9 15 6 4 10
15 26 24 35 10 10 20 39 24 66 15 111 28 191 36 224 55 214 105 735 105 1075
-1 346 -22 480 -101 650 -31 68 -121 227 -132 235 -4 3 -28 34 -54 70 -123
174 -384 403 -593 521 -69 40 -241 123 -295 144 -107 41 -153 57 -185 62 -16
3 -34 9 -40 13 -5 4 -26 11 -45 14 -19 4 -62 13 -95 21 -65 15 -390 46 -458
43 -23 0 -58 -3 -77 -5z m-320 -273 c0 -5 -9 -14 -20 -20 -22 -12 -23 -10 -14
14 7 17 34 22 34 6z m446 -27 c-10 -10 -19 5 -10 18 6 11 8 11 12 0 2 -7 1
-15 -2 -18z m-378 -20 c-4 -22 -22 -20 -26 1 -2 10 3 16 13 16 10 0 15 -7 13
-17z m352 5 c0 -4 -11 -8 -25 -8 -14 0 -25 4 -25 10 0 5 11 9 25 8 14 -1 25
-6 25 -10z m480 -12 c0 -20 -19 -31 -32 -18 -6 6 -7 15 -4 21 10 16 36 13 36
-3z m1192 -768 c-6 -6 -16 -7 -22 -3 -9 6 -9 9 1 16 17 10 34 0 21 -13z
m-3487 -1478 c4 -6 -5 -10 -19 -10 -14 0 -26 5 -26 10 0 6 9 10 19 10 11 0 23
-4 26 -10z m3625 -335 c0 -8 -4 -15 -10 -15 -5 0 -7 7 -4 15 4 8 8 15 10 15 2
0 4 -7 4 -15z"/>
<path d="M5551 7944 c-9 -20 -9 -30 0 -40 13 -16 49 -19 49 -4 0 6 9 10 20 10
33 0 23 30 -15 46 -43 18 -40 19 -54 -12z"/>
<path d="M4645 7920 c3 -5 15 -10 26 -10 10 0 19 5 19 10 0 6 -12 10 -26 10
-14 0 -23 -4 -19 -10z"/>
<path d="M5166 7914 c-8 -21 -8 -24 3 -24 5 0 11 9 14 20 6 24 -8 27 -17 4z"/>
<path d="M5226 7913 c-11 -11 -6 -23 9 -23 8 0 15 4 15 9 0 13 -16 22 -24 14z"/>
<path d="M4360 6792 c-8 -5 -33 -13 -55 -17 -92 -16 -268 -121 -379 -225 -73
-69 -117 -145 -131 -227 -9 -55 1 -70 29 -45 60 55 219 123 381 163 107 27
330 33 405 11 97 -28 176 -53 195 -62 85 -36 169 -61 202 -58 29 2 42 10 60
36 24 37 39 123 28 172 -7 31 -68 110 -86 110 -5 0 -6 -26 -3 -59 4 -33 2 -66
-4 -77 -9 -15 -12 -12 -22 27 -35 126 -78 192 -134 205 -27 6 -29 5 -22 -17
26 -85 12 -95 -25 -17 -34 73 -56 80 -259 85 -91 2 -172 0 -180 -5z"/>
<path d="M6048 6638 c-12 -13 -33 -37 -45 -53 -13 -16 -25 -27 -28 -24 -7 7
18 69 27 69 4 0 8 5 8 11 0 25 -73 0 -112 -38 -36 -34 -52 -62 -94 -158 l-13
-30 0 45 c0 25 3 62 8 83 10 43 2 46 -39 17 -51 -36 -71 -82 -73 -162 -2 -82
16 -122 59 -132 27 -7 41 -5 209 27 154 29 330 29 447 -2 180 -46 366 -140
463 -233 32 -32 63 -58 67 -58 14 0 9 114 -8 171 -30 100 -170 265 -304 356
-117 79 -256 121 -432 130 -114 6 -117 5 -140 -19z"/>
<path d="M4285 5845 c-120 -27 -234 -83 -315 -153 -49 -43 -49 -42 10 -112
l21 -25 -17 34 c-16 35 -16 35 12 58 59 48 196 117 288 144 l30 9 -31 -33
c-50 -52 -67 -95 -67 -167 0 -69 23 -128 63 -164 11 -10 18 -23 15 -27 -3 -5
64 -8 154 -7 179 3 174 1 224 93 42 75 27 201 -31 269 -14 16 -9 16 28 -5 62
-33 133 -107 166 -171 36 -70 25 -16 -14 68 -36 77 -89 129 -171 168 -60 28
-74 30 -185 33 -75 1 -143 -3 -180 -12z m333 -171 c12 -8 22 -26 22 -38 0 -54
-77 -64 -95 -12 -8 24 -6 31 14 47 28 23 31 23 59 3z"/>
<path d="M5996 5704 c-63 -20 -125 -63 -164 -111 -32 -42 -86 -142 -79 -149 2
-3 10 9 17 25 25 62 152 160 240 186 23 7 22 4 -11 -31 -54 -58 -70 -96 -70
-170 0 -50 5 -74 26 -113 26 -47 29 -49 103 -69 113 -31 212 -44 232 -30 130
98 160 263 67 367 -21 24 -21 24 28 -4 83 -47 160 -101 215 -152 l53 -49 -18
-33 -17 -34 28 22 c66 52 65 53 -32 149 -95 92 -180 144 -307 184 -86 27 -246
33 -311 12z m338 -177 c22 -16 18 -65 -5 -80 -47 -29 -101 32 -64 73 21 23 44
25 69 7z"/>
<path d="M5038 5609 c-21 -12 -24 -65 -5 -72 6 -2 28 4 47 14 19 9 46 20 60
23 36 8 54 22 46 35 -9 14 -125 14 -148 0z"/>
<path d="M5440 5587 c0 -13 25 -32 78 -58 23 -11 42 -25 42 -30 0 -5 9 -9 20
-9 27 0 38 46 17 67 -18 19 -157 45 -157 30z"/>
<path d="M3289 5458 c0 -20 -1 -21 -8 -5 -6 16 -9 17 -18 5 -8 -9 -9 -19 -3
-28 6 -8 10 -24 10 -35 l-1 -20 -11 20 c-16 30 -18 31 -28 15 -6 -8 -10 -41
-10 -72 0 -58 0 -58 30 -58 24 0 30 -4 30 -21 0 -19 5 -21 45 -17 46 3 46 3
39 -26 -4 -19 -3 -26 5 -22 6 4 11 25 11 47 0 22 -3 38 -7 36 -5 -3 -9 16 -11
41 -2 26 -7 49 -13 50 -5 2 -9 13 -9 24 0 19 -36 88 -46 88 -2 0 -4 -10 -5
-22z m26 -47 c-8 -14 -35 -14 -35 0 0 5 4 8 9 4 5 -3 13 0 16 6 4 5 9 8 12 5
3 -2 2 -9 -2 -15z"/>
<path d="M4728 5433 c7 -3 16 -2 19 1 4 3 -2 6 -13 5 -11 0 -14 -3 -6 -6z"/>
<path d="M5800 5360 c8 -5 20 -10 25 -10 6 0 3 5 -5 10 -8 5 -19 10 -25 10 -5
0 -3 -5 5 -10z"/>
<path d="M3314 5183 c-3 -10 -10 -26 -15 -36 -6 -11 -8 -21 -6 -24 7 -6 47 48
47 63 0 20 -20 17 -26 -3z"/>
<path d="M3280 5180 c0 -5 5 -10 11 -10 5 0 7 5 4 10 -3 6 -8 10 -11 10 -2 0
-4 -4 -4 -10z"/>
<path d="M7290 5129 c0 -5 -4 -7 -10 -4 -5 3 -10 -1 -10 -9 0 -9 -5 -16 -10
-16 -6 0 -13 -8 -17 -17 -3 -10 -24 -56 -46 -102 -32 -67 -38 -87 -29 -100 7
-9 17 -27 22 -40 12 -26 23 -20 35 17 5 19 3 22 -20 22 -21 0 -26 4 -21 16 3
9 6 19 6 22 0 4 20 6 45 4 28 -3 45 0 45 7 0 6 18 11 40 11 l40 0 0 50 c0 28
-4 50 -10 50 -5 0 -10 7 -10 15 0 19 -33 84 -42 85 -5 0 -8 -5 -8 -11z m-36
-96 c-12 -13 -15 -13 -11 -3 4 8 10 24 14 35 6 18 8 18 11 3 2 -10 -4 -26 -14
-35z m41 17 c3 -5 1 -10 -4 -10 -6 0 -11 5 -11 10 0 6 2 10 4 10 3 0 8 -4 11
-10z m-18 -42 c-3 -8 -6 -5 -6 6 -1 11 2 17 5 13 3 -3 4 -12 1 -19z"/>
<path d="M7220 4731 c0 -6 5 -13 10 -16 6 -3 10 1 10 9 0 9 -4 16 -10 16 -5 0
-10 -4 -10 -9z"/>
<path d="M4913 4550 c-30 -12 -29 -35 1 -65 21 -21 30 -23 78 -18 34 3 63 1
77 -7 23 -12 45 -5 25 8 -6 4 -14 17 -18 29 -4 11 -17 28 -30 36 -29 20 -105
29 -133 17z"/>
<path d="M5373 4474 c-19 -20 -32 -38 -30 -40 11 -11 173 -12 188 -1 50 39 16
77 -70 77 -49 0 -57 -3 -88 -36z"/>
<path d="M4543 4353 c-7 -3 -13 -13 -13 -24 0 -11 -10 -33 -22 -49 -23 -31
-16 -56 13 -45 18 7 42 79 28 83 -6 3 -5 10 2 18 13 16 10 23 -8 17z"/>
<path d="M4694 4339 c-3 -6 -17 -9 -30 -6 -14 2 -24 -1 -24 -7 0 -12 40 -42
51 -38 9 2 -2 -40 -14 -55 -7 -10 5 -13 55 -13 72 0 105 16 94 45 -3 10 -1 24
6 33 11 13 10 14 -12 8 -61 -18 -71 -18 -85 0 -8 11 -12 25 -10 32 5 15 -21
16 -31 1z"/>
<path d="M5440 4315 c12 -15 30 -12 30 6 0 5 -10 9 -21 9 -18 0 -19 -2 -9 -15z"/>
<path d="M5350 4310 c0 -5 4 -10 9 -10 6 0 13 5 16 10 3 6 -1 10 -9 10 -9 0
-16 -4 -16 -10z"/>
<path d="M4963 4303 c-7 -2 -13 -9 -13 -15 0 -12 41 -6 41 7 1 12 -11 15 -28
8z"/>
<path d="M5010 4263 c0 -22 2 -25 10 -13 13 20 13 40 0 40 -5 0 -10 -12 -10
-27z"/>
<path d="M4922 4268 c5 -15 28 -18 29 -3 0 6 -7 12 -17 13 -10 3 -15 -1 -12
-10z"/>
<path d="M5344 4269 c-3 -5 0 -9 6 -9 6 0 10 -6 9 -12 -3 -27 2 -36 19 -32 9
3 18 15 18 29 1 17 -4 24 -22 28 -14 2 -27 0 -30 -4z"/>
<path d="M5426 4271 c-4 -5 -2 -12 3 -15 5 -4 12 -2 15 3 4 5 2 12 -3 15 -5 4
-12 2 -15 -3z"/>
<path d="M4340 4266 c0 -8 51 -170 70 -221 34 -94 62 -155 102 -223 21 -34 38
-65 38 -68 0 -7 45 -57 89 -100 51 -48 164 -109 266 -143 120 -40 240 -55 394
-48 294 13 470 115 613 357 66 112 153 288 146 296 -3 3 -36 -1 -73 -8 -38 -6
-63 -14 -56 -16 6 -2 11 -18 11 -36 0 -64 -84 -118 -218 -141 -322 -56 -895 3
-1144 118 -96 44 -133 89 -132 158 0 26 -2 46 -6 44 -4 -2 -17 2 -31 9 -24 12
-69 27 -69 22z"/>
<path d="M5592 4254 c-5 -11 -7 -24 -5 -30 2 -7 -13 -14 -36 -18 -21 -3 -41
-13 -45 -21 -3 -8 -1 -15 3 -15 5 0 17 -3 25 -6 12 -5 15 -2 10 10 -9 22 9 20
31 -4 18 -20 62 -29 50 -10 -3 6 -1 10 4 10 6 0 11 -6 11 -14 0 -21 30 -28 37
-9 4 10 1 19 -6 21 -19 6 -51 44 -51 61 0 9 -4 22 -9 30 -7 11 -11 10 -19 -5z"/>
<path d="M5724 4244 c3 -9 6 -29 6 -46 0 -39 22 -32 31 10 5 24 3 32 -7 32 -8
0 -14 5 -14 10 0 6 -5 10 -11 10 -6 0 -8 -7 -5 -16z"/>
<path d="M5440 4228 l-35 -17 43 -1 c42 0 49 5 34 25 -5 7 -19 5 -42 -7z"/>
<path d="M5876 4231 c-4 -5 -2 -12 4 -16 5 -3 10 -26 10 -51 0 -37 3 -44 19
-44 18 0 18 3 6 44 -8 24 -11 46 -9 49 2 2 -2 10 -10 16 -9 8 -16 8 -20 2z"/>
<path d="M5647 4224 c-10 -10 41 -46 58 -42 14 3 14 5 0 26 -15 21 -45 29 -58
16z"/>
<path d="M4490 4206 c0 -7 131 -48 136 -43 3 3 -23 14 -57 26 -63 21 -79 25
-79 17z"/>
<path d="M5388 4183 c7 -3 16 -2 19 1 4 3 -2 6 -13 5 -11 0 -14 -3 -6 -6z"/>
<path d="M4650 4151 c24 -14 182 -48 335 -71 175 -27 488 -41 659 -29 71 5
131 10 132 12 2 1 -122 3 -274 3 -296 0 -382 5 -450 23 -23 7 -47 9 -52 6 -6
-3 -15 -3 -21 1 -12 7 -68 15 -107 14 -13 0 -21 3 -19 8 3 4 -7 8 -21 8 -46 3
-116 15 -127 23 -5 4 -23 8 -40 9 -22 2 -26 0 -15 -7z"/>
<path d="M6006 4135 c-3 -8 -1 -15 4 -15 6 0 10 7 10 15 0 8 -2 15 -4 15 -2 0
-6 -7 -10 -15z"/>
<path d="M5820 4080 l-35 -7 35 -1 c19 0 49 4 65 8 l30 8 -30 0 c-16 -1 -46
-4 -65 -8z"/>
<path d="M3755 3900 c-4 -7 -3 -15 3 -19 5 -3 10 -19 10 -34 0 -16 5 -34 12
-40 10 -10 11 -2 7 36 -5 52 -20 77 -32 57z"/>
<path d="M3820 3749 c0 -5 5 -7 10 -4 6 3 10 8 10 11 0 2 -4 4 -10 4 -5 0 -10
-5 -10 -11z"/>
<path d="M6490 3587 c0 -10 7 -25 15 -33 19 -19 19 -7 0 26 -11 20 -14 21 -15
7z"/>
<path d="M3880 3564 c0 -8 5 -12 10 -9 6 3 10 10 10 16 0 5 -4 9 -10 9 -5 0
-10 -7 -10 -16z"/>
<path d="M6420 3456 c0 -8 5 -18 10 -21 6 -3 10 3 10 14 0 12 -4 21 -10 21 -5
0 -10 -6 -10 -14z"/>
<path d="M4507 3289 c15 -15 27 -19 44 -14 22 7 22 8 4 21 -10 8 -30 14 -44
14 l-25 0 21 -21z"/>
<path d="M4175 3279 c-4 -6 -14 -8 -22 -5 -8 3 -12 2 -8 -3 3 -5 0 -11 -6 -13
-8 -3 -6 -9 4 -20 9 -8 13 -19 9 -23 -4 -5 8 0 26 11 47 27 59 43 41 55 -19
12 -36 11 -44 -2z"/>
<path d="M4325 3274 c-45 -23 -67 -46 -56 -57 7 -7 6 -17 0 -29 -9 -17 -8 -19
9 -14 11 4 23 3 26 -2 9 -15 -21 -34 -44 -27 -11 3 -20 2 -20 -3 0 -6 12 -13
28 -17 25 -7 25 -8 7 -15 -17 -6 -15 -8 13 -15 26 -5 36 -3 46 11 7 9 11 25 9
35 -3 9 0 20 6 23 17 11 14 56 -4 56 -8 0 -15 -4 -15 -10 0 -5 -5 -10 -11 -10
-20 0 -4 34 25 49 50 28 32 52 -19 25z"/>
<path d="M4497 3223 c-4 -6 -18 -8 -32 -5 -16 3 -25 0 -25 -8 0 -7 -8 -10 -20
-7 -11 3 -18 1 -14 -4 3 -5 -2 -9 -10 -9 -20 0 -20 -9 0 -32 13 -14 14 -21 5
-32 -6 -8 -19 -12 -29 -10 -10 2 -25 -6 -36 -22 -18 -25 -18 -26 3 -45 11 -10
24 -19 28 -19 4 0 19 -9 33 -20 14 -11 32 -20 40 -20 8 0 26 -9 40 -20 14 -11
32 -20 41 -20 9 0 22 -7 29 -15 7 -8 20 -15 30 -15 10 0 23 -7 30 -15 7 -8 18
-15 24 -14 27 3 47 -2 41 -11 -3 -5 2 -10 12 -11 34 -1 68 -9 98 -24 44 -20
562 -60 581 -45 8 8 28 9 54 5 27 -4 46 -3 55 5 8 7 26 9 39 6 14 -3 28 -2 31
4 3 5 19 10 34 10 30 0 146 33 199 57 29 12 31 17 20 30 -11 14 -10 16 13 11
14 -2 31 1 37 9 7 7 21 13 32 13 10 0 22 5 25 10 4 6 11 8 16 5 5 -4 9 -2 9 3
0 19 -57 35 -79 22 -12 -6 -21 -9 -22 -8 0 2 -2 20 -5 41 -5 42 6 47 37 16 11
-11 27 -18 34 -15 7 2 15 -4 18 -15 3 -10 12 -19 20 -19 16 0 30 27 21 41 -10
16 8 10 21 -8 7 -9 19 -14 29 -10 25 10 19 26 -11 33 -16 4 -39 15 -52 26 -13
10 -32 18 -42 18 -11 0 -19 5 -19 10 0 6 -8 10 -18 10 -10 0 -27 7 -38 15 -25
19 -40 19 -24 0 10 -12 10 -15 -3 -15 -9 0 -21 -8 -26 -17 -10 -17 -10 -16
-11 2 0 16 -2 17 -10 5 -8 -12 -12 -11 -32 7 -49 45 -91 22 -81 -43 l4 -29
-20 24 c-25 27 -27 49 -6 57 19 8 20 34 1 34 -7 0 -19 -7 -26 -15 -10 -12 -16
-13 -26 -4 -11 9 -19 6 -35 -15 -16 -20 -26 -25 -45 -20 -26 7 -35 -13 -9 -21
53 -17 52 -15 33 -26 -12 -7 -25 -6 -40 3 -13 6 -33 11 -45 9 -14 -1 -23 3
-23 11 0 7 -14 21 -31 31 -35 19 -53 22 -43 6 4 -7 -2 -9 -17 -7 -18 2 -25 10
-27 32 -3 26 -6 28 -34 22 -17 -3 -36 -6 -42 -6 -6 0 -4 -5 4 -10 11 -7 12
-12 3 -21 -8 -8 -17 -8 -34 2 -13 7 -38 12 -55 10 -18 -1 -35 2 -39 8 -3 6
-15 16 -27 22 -18 10 -19 8 -13 -12 7 -22 7 -22 -9 -6 -20 20 -22 20 -46 7
-10 -6 -21 -6 -24 -1 -6 10 -56 3 -73 -11 -7 -6 -13 -4 -17 4 -3 7 -3 1 1 -15
5 -25 3 -27 -18 -18 -19 7 -23 14 -21 39 2 16 -1 33 -7 37 -16 9 -13 25 3 25
8 0 18 5 21 10 3 6 -3 10 -14 10 -26 0 -94 -59 -70 -60 9 0 20 -7 23 -16 5
-12 -1 -15 -32 -12 -20 2 -37 8 -37 13 0 19 -16 35 -36 35 -10 0 -19 -7 -19
-15 0 -8 -7 -15 -15 -15 -8 0 -15 5 -15 10 0 6 5 10 10 10 18 0 11 19 -11 31
-16 8 -32 8 -66 -1 -39 -11 -45 -11 -57 5 -8 11 -15 14 -19 8z m28 -74 c0 -13
-5 -23 -12 -22 -7 2 -24 -2 -38 -7 -21 -8 -25 -7 -25 10 0 19 46 52 65 46 6
-1 10 -14 10 -27z m88 25 c23 -9 9 -44 -19 -44 -26 0 -38 14 -30 35 6 16 24
19 49 9z m71 -42 c7 -11 -32 -44 -44 -37 -14 9 2 45 21 45 10 0 20 -4 23 -8z
m352 -19 c21 -28 17 -53 -7 -53 -14 0 -19 5 -16 15 4 8 2 17 -3 20 -9 6 -3 35
7 35 3 0 12 -8 19 -17z m-106 -3 c0 -5 -7 -10 -16 -10 -8 0 -12 5 -9 10 3 6
10 10 16 10 5 0 9 -4 9 -10z m370 -36 c0 -2 -7 -4 -15 -4 -8 0 -15 4 -15 10 0
5 7 7 15 4 8 -4 15 -8 15 -10z m-300 2 c0 -2 -7 -6 -15 -10 -8 -3 -15 -1 -15
4 0 6 7 10 15 10 8 0 15 -2 15 -4z m220 -34 c-25 -4 -35 2 -26 17 5 7 13 7 27
-2 20 -12 20 -12 -1 -15z m-355 -2 c3 -5 2 -10 -4 -10 -5 0 -13 5 -16 10 -3 6
-2 10 4 10 5 0 13 -4 16 -10z m505 0 c8 -5 11 -10 5 -10 -5 0 -17 5 -25 10 -8
5 -10 10 -5 10 6 0 17 -5 25 -10z m440 -50 c0 -5 -5 -10 -11 -10 -5 0 -7 5 -4
10 3 6 8 10 11 10 2 0 4 -4 4 -10z"/>
<path d="M4896 3223 c-15 -4 -16 -7 -5 -14 10 -6 10 -9 2 -9 -7 0 -13 -4 -13
-10 0 -5 13 -10 28 -10 22 0 28 5 30 25 2 25 -4 28 -42 18z"/>
<path d="M4208 3213 c-24 -6 -23 -23 1 -23 10 0 21 7 25 15 6 15 4 16 -26 8z"/>
<path d="M4980 3190 c-12 -8 -12 -10 2 -15 19 -7 38 1 38 16 0 12 -21 11 -40
-1z"/>
<path d="M5697 3184 c-9 -10 12 -34 30 -34 19 0 12 34 -8 38 -8 1 -18 0 -22
-4z"/>
<path d="M5080 3171 c0 -10 30 -24 37 -17 3 3 2 9 -2 15 -8 13 -35 15 -35 2z"/>
<path d="M5414 3121 c20 -22 48 -18 39 5 -3 8 -17 14 -31 14 -24 0 -24 -1 -8
-19z"/>
<path d="M6009 3102 c31 -40 60 -51 68 -27 3 10 -47 48 -82 61 -16 6 -13 -1
14 -34z"/>
</g>
</svg>
