<?xml version="1.0" standalone="no"?>
<!DOCTYPE svg PUBLIC "-//W3C//DTD SVG 20010904//EN"
 "http://www.w3.org/TR/2001/REC-SVG-20010904/DTD/svg10.dtd">
<svg version="1.0" xmlns="http://www.w3.org/2000/svg"
 width="307.000000pt" height="307.000000pt" viewBox="0 0 307.000000 307.000000"
 preserveAspectRatio="xMidYMid meet">
<metadata>
Created by potrace 1.14, written by Peter Selinger 2001-2017
</metadata>
<g transform="translate(0.000000,307.000000) scale(0.100000,-0.100000)"
fill="#000000" stroke="none">
<path d="M2347 3046 c-167 -70 -459 -281 -772 -560 -92 -82 -420 -407 -484
-481 -232 -265 -407 -506 -579 -797 -145 -246 -181 -411 -146 -670 44 -334
156 -473 320 -399 44 20 59 38 174 211 75 113 117 167 123 160 2 -3 27 -40 56
-82 219 -329 444 -465 671 -408 187 48 417 200 765 505 55 49 102 91 105 94 3
3 35 32 71 63 l67 58 -27 106 -27 106 -46 18 -46 17 -133 -104 c-164 -127
-388 -279 -489 -330 -122 -62 -223 -52 -298 28 -18 19 -32 37 -32 40 0 3 12
12 28 20 15 8 56 30 92 50 36 20 101 55 145 79 427 229 621 480 576 747 -20
123 -91 237 -174 280 -144 74 -381 -33 -852 -385 -160 -120 -278 -214 -283
-224 -2 -5 -7 -8 -11 -8 -4 0 152 161 348 358 412 413 563 571 721 752 40 47
76 87 80 90 16 13 172 213 214 274 121 178 139 280 61 362 -51 54 -134 65
-218 30z m-397 -1795 c0 -25 -129 -124 -420 -323 l-125 -85 -32 22 -32 22 32
29 c127 115 393 283 517 327 54 19 60 19 60 8z"/>
</g>
</svg>
